<?xml version="1.0" standalone="no"?>
<!DOCTYPE svg PUBLIC "-//W3C//DTD SVG 20010904//EN"
 "http://www.w3.org/TR/2001/REC-SVG-20010904/DTD/svg10.dtd">
<svg version="1.0" xmlns="http://www.w3.org/2000/svg"
 width="160.000000pt" height="160.000000pt" viewBox="0 0 160.000000 160.000000"
 preserveAspectRatio="xMidYMid meet">

<g transform="translate(0.000000,160.000000) scale(0.100000,-0.100000)"
fill="#000000" stroke="none">
<path d="M122 1564 c-28 -13 3 -24 51 -18 42 5 62 1 108 -19 31 -14 60 -31 65
-38 4 -7 8 -43 8 -80 1 -65 16 -113 17 -53 2 137 -3 149 -75 184 -42 20 -149
35 -174 24z"/>
<path d="M145 1470 c-16 -6 -12 -8 15 -8 37 0 106 -16 127 -30 25 -16 27 -96
4 -170 -11 -39 -21 -81 -21 -94 0 -19 -8 -27 -37 -37 -47 -17 -129 -94 -156
-146 -28 -55 -35 -167 -13 -232 33 -99 121 -166 237 -179 88 -10 129 19 192
136 44 80 67 158 67 222 0 27 4 47 9 44 11 -7 23 37 15 58 -3 9 -10 14 -15 11
-4 -3 -15 7 -23 23 -15 29 -58 52 -123 66 -18 4 -35 15 -38 25 -3 10 -15 27
-26 37 -21 19 -21 19 -18 -6 3 -18 -1 -26 -15 -28 -19 -4 -19 3 -2 78 5 23 5
23 -6 -2 -19 -45 -27 -32 -12 19 8 25 14 72 14 104 0 50 -3 60 -26 78 -14 11
-42 23 -63 27 -20 3 -43 7 -51 9 -8 2 -24 0 -35 -5z m188 -391 c24 -13 56 -49
57 -64 0 -5 -7 1 -16 14 -9 12 -30 31 -48 42 -33 20 -29 26 7 8z m-15 -66 c2
-9 -8 -13 -32 -13 -34 0 -44 8 -29 24 11 11 56 2 61 -11z"/>
<path d="M70 1450 c0 -13 20 -13 40 0 12 8 9 10 -12 10 -16 0 -28 -4 -28 -10z"/>
<path d="M340 1318 c0 -9 5 -20 10 -23 13 -8 13 5 0 25 -8 13 -10 13 -10 -2z"/>
<path d="M330 1285 c0 -5 5 -17 10 -25 5 -8 10 -10 10 -5 0 6 -5 17 -10 25 -5
8 -10 11 -10 5z"/>
<path d="M846 1022 c15 -94 -37 -324 -104 -459 -36 -74 -107 -161 -120 -148
-4 4 8 19 27 34 46 37 39 72 -19 95 -52 21 -73 20 -94 -2 -13 -15 -14 -24 -5
-49 14 -42 8 -114 -11 -124 -8 -4 -28 -11 -43 -14 -16 -3 -39 -17 -51 -30 -13
-14 -29 -25 -35 -25 -22 0 -60 -47 -54 -68 2 -11 0 -23 -6 -26 -15 -10 -14
-26 3 -26 7 0 16 8 18 18 3 10 15 18 28 19 13 1 35 13 49 27 15 15 38 26 51
26 15 0 39 18 71 52 l48 52 45 -32 c57 -41 92 -48 140 -28 50 21 53 20 62 -6
3 -13 12 -30 19 -38 7 -8 18 -34 24 -57 11 -40 33 -73 51 -73 4 0 13 -14 20
-30 13 -30 63 -66 79 -56 4 3 17 -1 27 -9 10 -8 25 -15 32 -15 20 0 14 16 -12
28 -14 6 -26 22 -29 42 -4 20 -17 37 -36 48 -20 11 -31 27 -34 47 -3 16 -3 31
-2 33 1 1 33 -2 71 -8 151 -24 239 23 313 165 31 61 25 26 -9 -48 -16 -35 -31
-76 -34 -90 -2 -13 -13 -42 -24 -63 -34 -69 -35 -164 -1 -164 6 0 6 7 -1 20
-13 25 1 56 30 65 13 4 23 18 27 36 3 16 10 29 16 29 5 0 40 -26 76 -57 100
-86 101 -87 106 -81 7 7 -57 348 -65 348 -4 0 -12 -24 -19 -53 -18 -70 -35
-101 -66 -121 -39 -25 -45 -9 -8 20 27 21 32 32 38 88 9 78 -1 146 -21 146
-17 0 -17 -6 2 82 9 40 17 120 17 178 2 118 -12 160 -79 251 -31 43 -39 48
-62 43 -15 -4 -28 -7 -29 -8 -1 -1 5 -26 13 -56 35 -129 -25 -414 -112 -527
-25 -33 -25 -33 -56 -17 -35 18 -70 12 -98 -16 -26 -26 -25 -46 5 -76 l25 -25
-33 -19 c-40 -25 -59 -25 -80 -2 -21 23 -21 52 -2 98 8 19 12 47 9 62 -4 18 6
52 31 104 57 125 88 254 89 383 l1 109 -75 13 c-41 6 -90 15 -108 18 l-32 6 6
-39z"/>
<path d="M307 498 c-21 -21 -44 -59 -52 -83 -17 -49 -14 -147 5 -153 8 -3 10
2 6 16 -5 14 0 28 13 41 12 12 21 34 21 50 0 16 6 31 15 35 9 3 15 18 15 35 0
19 8 35 21 45 19 13 20 17 7 34 -13 19 -15 18 -51 -20z"/>
</g>
</svg>
